<?xml version="1.0" encoding="UTF-8" standalone="no"?>
<svg
   inkscape:version="1.1.2 (0a00cf5339, 2022-02-04)"
   sodipodi:docname="Algorand_mark.svg"
   id="svg22"
   version="1.1"
   fill="none"
   viewBox="0 0 100 30"
   height="30"
   width="100"
   xmlns:inkscape="http://www.inkscape.org/namespaces/inkscape"
   xmlns:sodipodi="http://sodipodi.sourceforge.net/DTD/sodipodi-0.dtd"
   xmlns="http://www.w3.org/2000/svg"
   xmlns:svg="http://www.w3.org/2000/svg"
   xmlns:rdf="http://www.w3.org/1999/02/22-rdf-syntax-ns#"
   xmlns:cc="http://creativecommons.org/ns#"
   xmlns:dc="http://purl.org/dc/elements/1.1/">
  <metadata
     id="metadata28">
    <rdf:RDF>
      <cc:Work
         rdf:about="">
        <dc:format>image/svg+xml</dc:format>
        <dc:type
           rdf:resource="http://purl.org/dc/dcmitype/StillImage" />
      </cc:Work>
    </rdf:RDF>
  </metadata>
  <defs
     id="defs26" />
  <sodipodi:namedview
     inkscape:current-layer="svg22"
     inkscape:window-maximized="1"
     inkscape:window-y="0"
     inkscape:window-x="0"
     inkscape:cy="27.400431"
     inkscape:cx="55.108731"
     inkscape:zoom="8.1203103"
     showgrid="false"
     id="namedview24"
     inkscape:window-height="1044"
     inkscape:window-width="1920"
     inkscape:pageshadow="2"
     inkscape:pageopacity="0"
     guidetolerance="10"
     gridtolerance="10"
     objecttolerance="10"
     borderopacity="1"
     bordercolor="#666666"
     pagecolor="#ffffff"
     inkscape:pagecheckerboard="true" />
  <g
     transform="translate(4.100017,2.010408)"
     id="g861">
    <path
       d="M 24.3033,5.4704 V 20.3632 H 21.286 V 5.4704 Z"
       fill="white"
       id="path2"
       style="fill:#000000;fill-opacity:1" />
    <path
       d="M 36.6,10.3168 V 20.384 c 0,3.12 -2.418,5.0336 -5.3733,5.0336 -2.852,0 -4.9807,-1.7888 -5.1874,-4.3056 l 2.9967,0.0208 c 0.124,1.0608 1.054,1.5392 2.294,1.5392 1.1573,0 2.2527,-0.624 2.2527,-2.2672 V 19.136 c -0.7647,0.4992 -1.7567,0.7904 -2.852,0.7904 -2.7487,0 -4.96,-2.2464 -4.96,-4.8256 0,-2.9952 2.2113,-5.0128 4.96,-5.0128 1.0953,0 2.0873,0.2912 2.852,0.7904 v -0.5408 z m -3.0173,5.928 v -2.4544 c -0.62,-0.8944 -1.4674,-1.2064 -2.3147,-1.2064 -1.488,0 -2.5007,0.9984 -2.5007,2.5168 0,1.1232 1.0334,2.3296 2.5007,2.3296 0.8473,0.0208 1.7153,-0.2912 2.3147,-1.1856 z"
       fill="white"
       id="path4"
       style="fill:#000000;fill-opacity:1" />
    <path
       d="m 48.628,15.2256 c 0,3.0992 -2.2733,5.304 -5.332,5.304 -3.0793,0 -5.3527,-2.2048 -5.3527,-5.304 0,-3.0784 2.2734,-5.32484 5.3527,-5.32484 3.0587,0 5.332,2.24644 5.332,5.32484 z m -2.914,0 c 0,-1.456 -0.9507,-2.6416 -2.418,-2.6416 -1.488,0 -2.4387,1.1856 -2.4387,2.6416 0,1.4976 0.9507,2.6208 2.4387,2.6208 1.4673,-0.0208 2.418,-1.1232 2.418,-2.6208 z"
       fill="white"
       id="path6"
       style="fill:#000000;fill-opacity:1" />
    <path
       d="m 67.352,10.3376 v 10.0048 l -2.9553,0.0208 v -0.5616 c -0.7647,0.4992 -1.7567,0.8112 -2.852,0.8112 -2.7487,0 -4.96,-2.3504 -4.96,-5.2416 0,-2.912 2.2113,-5.2624 4.96,-5.2624 1.0953,0 2.0873,0.312 2.852,0.8112 v -0.5616 z m -2.976,6.552 V 13.832 c -0.62,-0.8944 -1.488,-1.144 -2.356,-1.144 -1.5087,0 -2.5627,1.2272 -2.5627,2.6832 0,1.4352 1.054,2.6624 2.5627,2.6624 0.868,0 1.736,-0.2496 2.356,-1.144 z"
       fill="white"
       id="path8"
       style="fill:#000000;fill-opacity:1" />
    <path
       d="m 79.504,14.9344 v 5.4288 H 76.59 V 15.288 c 0,-1.6432 -0.806,-2.496 -2.2527,-2.496 -0.744,0 -1.5913,0.4368 -2.294,1.2688 v 6.3024 h -2.976 V 10.3584 h 2.976 v 0.7488 c 0.806,-0.6448 1.7567,-0.9984 2.8727,-0.9984 2.6453,0 4.588,1.872 4.588,4.8256 z"
       fill="white"
       id="path10"
       style="fill:#000000;fill-opacity:1" />
    <path
       d="M 19.9013,20.3424 H 16.8427 L 14.838,12.8752 10.5393,20.3424 H 7.10867 L 13.7427,8.77758 12.668,4.74239 3.71933,20.3424 H 0.288666 L 11.6347,0.561584 h 3.0173 l 1.302,4.929606 h 3.1 l -2.108,3.70239 z"
       fill="white"
       id="path16"
       style="fill:#000000;fill-opacity:1" />
    <path
       d="M 91.5113,5.4704 V 20.3632 H 88.494 v -0.5616 c -0.7647,0.4992 -1.7567,0.8112 -2.852,0.8112 -2.7487,0 -4.96,-2.3504 -4.96,-5.2624 0,-2.8912 2.2113,-5.2416 4.96,-5.2416 1.0953,0 2.0873,0.312 2.852,0.8112 V 5.4704 Z M 88.494,16.8896 v -3.0784 c -0.62,-0.8944 -1.5087,-1.144 -2.3767,-1.144 -1.5293,0 -2.5833,1.2272 -2.5833,2.6832 0,1.4768 1.054,2.704 2.5833,2.704 0.868,0 1.736,-0.2496 2.3767,-1.1648 z"
       fill="white"
       id="path18"
       style="fill:#000000;fill-opacity:1" />
    <path
       d="m 56.0267,12.8752 c -0.6613,0.0832 -2.1907,0.1664 -3.1,1.4144 v 6.0736 h -2.976 v -9.984 h 2.976 v 0.7488 c 0.682,-0.5824 1.6947,-0.936 3.1,-0.7904"
       fill="white"
       id="path20"
       style="fill:#000000;fill-opacity:1" />
  </g>
</svg>
